HIERARCHY
ROOT mixamorig:Hips
{
	OFFSET -0.000008 104.274872 1.554316
	CHANNELS 6 Xposition Yposition Zposition Xrotation Yrotation Zrotation
	JOINT mixamorig:Spine
	{
		OFFSET -0.000005 10.181595 0.131519
		CHANNELS 6 Xposition Yposition Zposition Xrotation Yrotation Zrotation
		JOINT mixamorig:Spine1
		{
			OFFSET -0.000000 9.893959 -1.470707
			CHANNELS 6 Xposition Yposition Zposition Xrotation Yrotation Zrotation
			JOINT mixamorig:Spine2
			{
				OFFSET -0.000000 9.220757 -1.370641
				CHANNELS 6 Xposition Yposition Zposition Xrotation Yrotation Zrotation
				JOINT mixamorig:Neck
				{
					OFFSET 0.000001 16.740417 -2.049036
					CHANNELS 6 Xposition Yposition Zposition Xrotation Yrotation Zrotation
					JOINT mixamorig:Head
					{
						OFFSET 0.000000 9.617874 1.685006
						CHANNELS 6 Xposition Yposition Zposition Xrotation Yrotation Zrotation
						JOINT mixamorig:HeadTop_End
						{
							OFFSET 0.000002 22.037354 7.501101
							CHANNELS 6 Xposition Yposition Zposition Xrotation Yrotation Zrotation
							End Site
							{
								OFFSET 0.000168 2310.654297 -282.823242
							}
						}
					}
				}
				JOINT mixamorig:RightShoulder
				{
					OFFSET -4.569970 11.014908 -2.160885
					CHANNELS 6 Xposition Yposition Zposition Xrotation Yrotation Zrotation
					JOINT mixamorig:RightArm
					{
						OFFSET -10.592851 -0.524811 -2.232101
						CHANNELS 6 Xposition Yposition Zposition Xrotation Yrotation Zrotation
						JOINT mixamorig:RightForeArm
						{
							OFFSET -27.841511 0.000031 -0.000004
							CHANNELS 6 Xposition Yposition Zposition Xrotation Yrotation Zrotation
							JOINT mixamorig:RightHand
							{
								OFFSET -28.328831 -0.000015 0.000015
								CHANNELS 6 Xposition Yposition Zposition Xrotation Yrotation Zrotation
								JOINT mixamorig:RightHandThumb1
								{
									OFFSET -2.464806 -1.573990 2.681852
									CHANNELS 6 Xposition Yposition Zposition Xrotation Yrotation Zrotation
									JOINT mixamorig:RightHandThumb2
									{
										OFFSET -3.215179 -1.872803 1.924282
										CHANNELS 6 Xposition Yposition Zposition Xrotation Yrotation Zrotation
										JOINT mixamorig:RightHandThumb3
										{
											OFFSET -2.654831 -1.527969 1.512609
											CHANNELS 6 Xposition Yposition Zposition Xrotation Yrotation Zrotation
											JOINT mixamorig:RightHandThumb4
											{
												OFFSET -2.018814 -1.152008 1.108052
												CHANNELS 6 Xposition Yposition Zposition Xrotation Yrotation Zrotation
												End Site
												{
													OFFSET -188.809540 -114.533607 132.431396
												}
											}
										}
									}
								}
								JOINT mixamorig:RightHandIndex1
								{
									OFFSET -9.108284 -0.517868 2.259835
									CHANNELS 6 Xposition Yposition Zposition Xrotation Yrotation Zrotation
									JOINT mixamorig:RightHandIndex2
									{
										OFFSET -3.699989 0.000000 0.001215
										CHANNELS 6 Xposition Yposition Zposition Xrotation Yrotation Zrotation
										JOINT mixamorig:RightHandIndex3
										{
											OFFSET -2.850006 0.000031 -0.000522
											CHANNELS 6 Xposition Yposition Zposition Xrotation Yrotation Zrotation
											JOINT mixamorig:RightHandIndex4
											{
												OFFSET -2.772186 -0.000015 -0.000020
												CHANNELS 6 Xposition Yposition Zposition Xrotation Yrotation Zrotation
												End Site
												{
													OFFSET -277.218445 0.000000 -0.050231
												}
											}
										}
									}
								}
								JOINT mixamorig:RightHandMiddle1
								{
									OFFSET -9.532516 -0.000031 -0.000023
									CHANNELS 6 Xposition Yposition Zposition Xrotation Yrotation Zrotation
									JOINT mixamorig:RightHandMiddle2
									{
										OFFSET -3.700005 -0.000015 0.003713
										CHANNELS 6 Xposition Yposition Zposition Xrotation Yrotation Zrotation
										JOINT mixamorig:RightHandMiddle3
										{
											OFFSET -2.949974 0.000015 -0.002054
											CHANNELS 6 Xposition Yposition Zposition Xrotation Yrotation Zrotation
											JOINT mixamorig:RightHandMiddle4
											{
												OFFSET -2.946640 0.000000 -0.000156
												CHANNELS 6 Xposition Yposition Zposition Xrotation Yrotation Zrotation
												End Site
												{
													OFFSET -294.664337 0.000000 -0.113670
												}
											}
										}
									}
								}
								JOINT mixamorig:RightHandRing1
								{
									OFFSET -9.103600 -0.043076 -1.865134
									CHANNELS 6 Xposition Yposition Zposition Xrotation Yrotation Zrotation
									JOINT mixamorig:RightHandRing2
									{
										OFFSET -3.379288 0.000000 -0.001055
										CHANNELS 6 Xposition Yposition Zposition Xrotation Yrotation Zrotation
										JOINT mixamorig:RightHandRing3
										{
											OFFSET -2.889687 -0.000015 0.000379
											CHANNELS 6 Xposition Yposition Zposition Xrotation Yrotation Zrotation
											JOINT mixamorig:RightHandRing4
											{
												OFFSET -2.638809 -0.000015 0.000941
												CHANNELS 6 Xposition Yposition Zposition Xrotation Yrotation Zrotation
												End Site
												{
													OFFSET -263.880371 0.000000 0.516020
												}
											}
										}
									}
								}
								JOINT mixamorig:RightHandPinky1
								{
									OFFSET -8.076683 -0.486710 -3.806280
									CHANNELS 6 Xposition Yposition Zposition Xrotation Yrotation Zrotation
									JOINT mixamorig:RightHandPinky2
									{
										OFFSET -3.600014 -0.000015 -0.003747
										CHANNELS 6 Xposition Yposition Zposition Xrotation Yrotation Zrotation
										JOINT mixamorig:RightHandPinky3
										{
											OFFSET -2.099983 0.000000 -0.005739
											CHANNELS 6 Xposition Yposition Zposition Xrotation Yrotation Zrotation
											JOINT mixamorig:RightHandPinky4
											{
												OFFSET -2.115768 -0.000031 -0.003680
												CHANNELS 6 Xposition Yposition Zposition Xrotation Yrotation Zrotation
												End Site
												{
													OFFSET -211.577087 0.000000 -0.350686
												}
											}
										}
									}
								}
							}
						}
					}
				}
				JOINT mixamorig:LeftShoulder
				{
					OFFSET 4.570447 11.014725 -2.160855
					CHANNELS 6 Xposition Yposition Zposition Xrotation Yrotation Zrotation
					JOINT mixamorig:LeftArm
					{
						OFFSET 10.592371 -0.524597 -2.232119
						CHANNELS 6 Xposition Yposition Zposition Xrotation Yrotation Zrotation
						JOINT mixamorig:LeftForeArm
						{
							OFFSET 27.841532 -0.000031 0.000026
							CHANNELS 6 Xposition Yposition Zposition Xrotation Yrotation Zrotation
							JOINT mixamorig:LeftHand
							{
								OFFSET 28.328846 -0.000061 0.000022
								CHANNELS 6 Xposition Yposition Zposition Xrotation Yrotation Zrotation
								JOINT mixamorig:LeftHandThumb1
								{
									OFFSET 2.466141 -1.576172 2.681732
									CHANNELS 6 Xposition Yposition Zposition Xrotation Yrotation Zrotation
									JOINT mixamorig:LeftHandThumb2
									{
										OFFSET 3.217812 -1.872070 1.916482
										CHANNELS 6 Xposition Yposition Zposition Xrotation Yrotation Zrotation
										JOINT mixamorig:LeftHandThumb3
										{
											OFFSET 2.656029 -1.528778 1.514513
											CHANNELS 6 Xposition Yposition Zposition Xrotation Yrotation Zrotation
											JOINT mixamorig:LeftHandThumb4
											{
												OFFSET 2.020889 -1.154053 1.115139
												CHANNELS 6 Xposition Yposition Zposition Xrotation Yrotation Zrotation
												End Site
												{
													OFFSET 190.885437 -115.081749 130.048782
												}
											}
										}
									}
								}
								JOINT mixamorig:LeftHandIndex1
								{
									OFFSET 9.109314 -0.518021 2.259871
									CHANNELS 6 Xposition Yposition Zposition Xrotation Yrotation Zrotation
									JOINT mixamorig:LeftHandIndex2
									{
										OFFSET 3.699989 0.000000 -0.000322
										CHANNELS 6 Xposition Yposition Zposition Xrotation Yrotation Zrotation
										JOINT mixamorig:LeftHandIndex3
										{
											OFFSET 2.850006 0.000000 0.000352
											CHANNELS 6 Xposition Yposition Zposition Xrotation Yrotation Zrotation
											JOINT mixamorig:LeftHandIndex4
											{
												OFFSET 2.774864 -0.000031 -0.000027
												CHANNELS 6 Xposition Yposition Zposition Xrotation Yrotation Zrotation
												End Site
												{
													OFFSET 277.486267 0.000000 -0.009857
												}
											}
										}
									}
								}
								JOINT mixamorig:LeftHandMiddle1
								{
									OFFSET 9.533394 0.000061 0.000044
									CHANNELS 6 Xposition Yposition Zposition Xrotation Yrotation Zrotation
									JOINT mixamorig:LeftHandMiddle2
									{
										OFFSET 3.699989 -0.000015 -0.000231
										CHANNELS 6 Xposition Yposition Zposition Xrotation Yrotation Zrotation
										JOINT mixamorig:LeftHandMiddle3
										{
											OFFSET 2.949997 -0.000015 -0.000059
											CHANNELS 6 Xposition Yposition Zposition Xrotation Yrotation Zrotation
											JOINT mixamorig:LeftHandMiddle4
											{
												OFFSET 2.952896 0.000031 0.000063
												CHANNELS 6 Xposition Yposition Zposition Xrotation Yrotation Zrotation
												End Site
												{
													OFFSET 295.289337 0.000000 0.022810
												}
											}
										}
									}
								}
								JOINT mixamorig:LeftHandRing1
								{
									OFFSET 9.104523 -0.042999 -1.865074
									CHANNELS 6 Xposition Yposition Zposition Xrotation Yrotation Zrotation
									JOINT mixamorig:LeftHandRing2
									{
										OFFSET 3.150009 -0.000031 0.000043
										CHANNELS 6 Xposition Yposition Zposition Xrotation Yrotation Zrotation
										JOINT mixamorig:LeftHandRing3
										{
											OFFSET 2.949982 -0.000015 0.000040
											CHANNELS 6 Xposition Yposition Zposition Xrotation Yrotation Zrotation
											JOINT mixamorig:LeftHandRing4
											{
												OFFSET 2.644348 0.000000 0.000057
												CHANNELS 6 Xposition Yposition Zposition Xrotation Yrotation Zrotation
												End Site
												{
													OFFSET 264.434631 0.000000 0.012105
												}
											}
										}
									}
								}
								JOINT mixamorig:LeftHandPinky1
								{
									OFFSET 8.077789 -0.486847 -3.806259
									CHANNELS 6 Xposition Yposition Zposition Xrotation Yrotation Zrotation
									JOINT mixamorig:LeftHandPinky2
									{
										OFFSET 3.599953 0.000031 0.014727
										CHANNELS 6 Xposition Yposition Zposition Xrotation Yrotation Zrotation
										JOINT mixamorig:LeftHandPinky3
										{
											OFFSET 2.100021 0.000015 0.007705
											CHANNELS 6 Xposition Yposition Zposition Xrotation Yrotation Zrotation
											JOINT mixamorig:LeftHandPinky4
											{
												OFFSET 2.125504 0.000031 0.007517
												CHANNELS 6 Xposition Yposition Zposition Xrotation Yrotation Zrotation
												End Site
												{
													OFFSET 212.550781 0.000000 0.625752
												}
											}
										}
									}
								}
							}
						}
					}
				}
			}
		}
	}
	JOINT mixamorig:RightUpLeg
	{
		OFFSET -8.207787 -6.751648 -1.599560
		CHANNELS 6 Xposition Yposition Zposition Xrotation Yrotation Zrotation
		JOINT mixamorig:RightLeg
		{
			OFFSET -0.000002 -44.370117 0.345942
			CHANNELS 6 Xposition Yposition Zposition Xrotation Yrotation Zrotation
			JOINT mixamorig:RightFoot
			{
				OFFSET 0.000003 -44.423679 -3.043532
				CHANNELS 6 Xposition Yposition Zposition Xrotation Yrotation Zrotation
				JOINT mixamorig:RightToeBase
				{
					OFFSET -0.000002 -8.728671 10.710558
					CHANNELS 6 Xposition Yposition Zposition Xrotation Yrotation Zrotation
					JOINT mixamorig:RightToe_End
					{
						OFFSET -0.000001 -0.000679 9.278119
						CHANNELS 6 Xposition Yposition Zposition Xrotation Yrotation Zrotation
						End Site
						{
							OFFSET 0.000000 -0.067690 927.812134
						}
					}
				}
			}
		}
	}
	JOINT mixamorig:LeftUpLeg
	{
		OFFSET 8.207793 -6.751686 -1.599556
		CHANNELS 6 Xposition Yposition Zposition Xrotation Yrotation Zrotation
		JOINT mixamorig:LeftLeg
		{
			OFFSET -0.000004 -44.370014 0.346954
			CHANNELS 6 Xposition Yposition Zposition Xrotation Yrotation Zrotation
			JOINT mixamorig:LeftFoot
			{
				OFFSET -0.000001 -44.423672 -3.044401
				CHANNELS 6 Xposition Yposition Zposition Xrotation Yrotation Zrotation
				JOINT mixamorig:LeftToeBase
				{
					OFFSET -0.000002 -8.728669 10.710558
					CHANNELS 6 Xposition Yposition Zposition Xrotation Yrotation Zrotation
					JOINT mixamorig:LeftToe_End
					{
						OFFSET -0.000003 -0.000679 9.278133
						CHANNELS 6 Xposition Yposition Zposition Xrotation Yrotation Zrotation
						End Site
						{
							OFFSET 0.000000 -0.068021 927.813477
						}
					}
				}
			}
		}
	}
}
MOTION
Frames: 3
Frame Time: 0.033333
0.000006 104.270477 1.554256 0.000010 0.000003 -0.000113 -0.000005 10.181587 0.131522 0.000001 -0.000003 0.000084 -0.000000 9.893967 -1.470711 0.000001 0.000000 -0.000000 -0.000000 9.220802 -1.370642 0.000000 -0.000000 -0.000000 0.000001 16.740433 -2.049030 0.000000 -0.000000 -0.000000 0.000000 9.617859 1.685014 0.000000 0.000000 0.000000 0.000002 22.037384 7.501101 0.000000 -0.000000 0.000000 -4.569968 11.014880 -2.160881 0.000008 0.000001 -0.000038 -10.592793 -0.524846 -2.231753 84.127618 60.472712 -55.487828 -27.841473 0.000015 0.000601 37.662353 107.895569 -50.205814 -28.328835 0.000005 0.000022 -0.000320 -0.000044 0.000006 -2.464919 -1.574072 2.682027 136.136530 -205.320664 166.869841 -3.215297 -1.872843 1.924489 314.071523 29.777053 347.320119 -2.654947 -1.528144 1.512839 -65.276268 24.006885 -13.274114 -2.018834 -1.151987 1.108064 -0.000004 -0.000003 0.000002 -9.108380 -0.517929 2.260288 -91.373226 53.112313 54.211017 -3.700057 -0.000049 0.001719 -102.629958 35.671384 43.779580 -2.850074 -0.000081 -0.000081 -98.822496 20.792127 24.172536 -2.772170 -0.000015 -0.000025 0.000000 -0.000002 -0.000001 -9.532499 -0.000021 0.000531 -132.804422 39.107908 78.211301 -3.700033 -0.000042 0.004249 -121.731962 15.576462 27.485675 -2.950003 -0.000119 -0.001571 -115.604135 6.592679 10.444106 -2.946621 0.000011 -0.000146 -0.000000 0.000004 -0.000002 -9.103596 -0.043054 -1.864571 -128.687744 34.065220 65.053399 -3.379289 -0.000139 -0.000572 -112.694727 1.491971 2.262895 -2.889688 -0.000198 0.000789 -109.682347 -10.689325 -15.064001 -2.638805 -0.000013 0.000929 -0.000000 0.000000 0.000001 -8.076709 -0.486727 -3.805761 -124.836570 25.871153 47.391981 -3.599992 -0.000218 -0.003295 -109.160500 -3.182019 -4.940081 -2.099916 -0.000252 -0.005385 -103.645293 -14.588203 -18.802645 -2.115770 -0.000054 -0.003678 -0.000000 0.000001 -0.000002 4.570446 11.014691 -2.160851 -0.000018 0.000010 -0.000021 10.592524 -0.524504 -2.232398 74.035378 -58.815599 46.052472 27.841751 -0.000071 -0.000104 221.248077 -72.323480 234.491924 28.328831 -0.000043 0.000017 0.000020 -0.000090 0.000000 2.466174 -1.576173 2.681870 64.934718 133.576521 -123.017226 3.217834 -1.871982 1.916539 272.082225 34.650492 35.149011 2.656061 -1.528725 1.514622 273.412855 23.368616 31.391010 2.020899 -1.154086 1.115150 0.000000 0.000004 0.000002 9.109270 -0.517914 2.260098 -80.086113 -20.546643 -17.316403 3.699842 -0.000053 -0.000212 2.466460 -142.811360 7.361759 2.850116 0.000242 0.000288 -48.206355 -162.825071 217.300310 2.774884 -0.000028 -0.000040 -0.000002 0.000000 0.000001 9.533369 0.000148 0.000277 -77.297032 -19.288873 -15.473910 3.700058 0.000005 -0.000188 167.390957 -21.989347 120.736038 2.950030 0.000314 -0.000174 -235.542243 -3.632461 6.896997 2.952873 -0.000012 0.000050 0.000002 -0.000001 -0.000003 9.104505 -0.042923 -1.864846 -75.361111 -15.807998 -12.241369 3.150077 0.000101 0.000121 175.182959 -4.244309 82.797684 2.949930 0.000381 -0.000041 136.089552 5.881382 -14.521252 2.644317 0.000018 0.000038 -0.000000 0.000001 0.000000 8.077774 -0.486823 -3.806053 -59.486112 -11.793962 -6.955433 3.599972 0.000380 0.014868 -155.630395 1.830839 6.402537 2.099850 0.000424 0.007640 151.480222 10.399170 -38.522550 2.125501 -0.000026 0.007513 -0.000001 0.000001 0.000001 -8.207786 -6.751667 -1.599560 -0.077001 -0.000003 0.000080 -0.000002 -44.370110 0.345938 0.153719 -0.000000 -0.000000 0.000000 -44.423679 -3.043532 -0.076700 0.000000 -0.000002 -0.000006 -8.728667 10.710559 -0.000009 -0.000000 -0.000000 -0.000001 -0.000679 9.278123 0.000000 -0.000000 -0.000000 8.207792 -6.751710 -1.599556 -0.074518 -0.000003 0.000081 -0.000002 -44.370014 0.346960 0.148822 0.000002 0.000000 -0.000001 -44.423664 -3.044403 -0.074314 0.000000 -0.000002 -0.000004 -8.728671 10.710558 0.000007 -0.000000 -0.000000 0.000000 -0.000680 9.278137 -0.000000 0.000000 -0.000001 
0.000006 104.270477 1.554256 0.000010 0.000003 -0.000113 -0.000005 10.181587 0.131522 0.000001 -0.000003 0.000084 -0.000000 9.893967 -1.470711 0.000001 0.000000 -0.000000 -0.000000 9.220802 -1.370642 0.000000 -0.000000 -0.000000 0.000001 16.740433 -2.049030 0.000000 -0.000000 -0.000000 0.000000 9.617859 1.685014 0.000000 0.000000 0.000000 0.000002 22.037384 7.501101 0.000000 -0.000000 0.000000 -4.569968 11.014880 -2.160881 0.000008 0.000001 -0.000038 -10.592787 -0.524855 -2.231754 84.729268 61.351382 -56.824975 -27.841476 -0.000003 0.000588 38.767563 106.588387 -50.527728 -28.328836 0.000007 0.000027 -0.000316 -0.000045 0.000007 -2.464888 -1.574106 2.682056 123.863172 -201.263026 166.209211 -3.215243 -1.872911 1.924495 291.113591 17.519352 344.886031 -2.654909 -1.528219 1.512882 -80.090648 13.704623 -17.516736 -2.018827 -1.151987 1.108056 -0.000004 -0.000000 0.000002 -9.108358 -0.517907 2.260320 -101.123772 59.516950 69.591848 -3.700025 -0.000000 0.001720 -105.477143 45.679134 57.944142 -2.850064 -0.000037 -0.000061 -102.410361 30.312724 37.243700 -2.772160 -0.000032 -0.000020 0.000000 0.000001 -0.000001 -9.532481 -0.000034 0.000548 -138.162228 42.961924 91.618266 -3.700015 -0.000026 0.004258 -123.076894 18.095580 32.659919 -2.950027 -0.000088 -0.001559 -116.318627 12.241727 19.587700 -2.946635 0.000010 -0.000150 0.000001 -0.000000 -0.000002 -9.103553 -0.043023 -1.864548 -138.006117 38.827474 85.128117 -3.379272 -0.000136 -0.000591 -114.827405 1.501726 2.372047 -2.889691 -0.000166 0.000811 -111.511649 -6.738435 -9.818802 -2.638818 0.000001 0.000938 0.000000 -0.000001 0.000000 -8.076653 -0.486666 -3.805701 -138.302807 29.880326 70.004111 -3.599967 -0.000223 -0.003309 -109.161982 -3.160728 -4.910133 -2.099935 -0.000249 -0.005383 -103.938889 -10.192505 -13.308296 -2.115787 -0.000043 -0.003674 0.000000 -0.000001 -0.000005 4.570446 11.014691 -2.160851 -0.000018 0.000010 -0.000021 10.592522 -0.524512 -2.232409 74.165753 -59.651997 46.856252 27.841763 -0.000068 -0.000096 221.361991 -73.316835 233.789124 28.328838 -0.000028 0.000012 0.000022 -0.000090 0.000000 2.466179 -1.576130 2.681865 58.225566 139.217943 -120.955096 3.217819 -1.871994 1.916549 268.618554 37.590827 38.185586 2.656055 -1.528754 1.514607 275.237390 27.209479 31.679486 2.020890 -1.154081 1.115148 0.000001 0.000000 0.000009 9.109275 -0.517910 2.260087 -79.698636 -18.850301 -15.770818 3.699818 0.000102 -0.000103 52.357570 -132.266777 96.030363 2.850097 0.000071 0.000352 -32.040896 -145.174633 275.046418 2.774872 -0.000046 -0.000026 0.000000 -0.000000 0.000000 9.533382 0.000152 0.000262 -73.959030 -15.070531 -11.372602 3.699743 0.000111 -0.000063 201.306042 -35.263847 241.233867 2.950114 0.000246 -0.000135 -222.441790 -11.282020 28.551818 2.952870 -0.000013 0.000072 -0.000002 -0.000002 -0.000002 9.104507 -0.042924 -1.864869 -69.872753 -13.366425 -9.359709 3.149803 0.000428 0.000177 197.396606 -8.235580 -50.404730 2.949959 0.000376 -0.000014 143.643004 1.699954 -5.169596 2.644315 0.000041 0.000047 -0.000003 0.000002 0.000001 8.077766 -0.486815 -3.806068 -61.986665 -12.401000 -7.676400 3.600024 0.000353 0.014861 -157.308436 3.724140 16.049929 2.099871 0.000431 0.007653 153.198507 7.494952 -29.609007 2.125505 -0.000001 0.007524 0.000001 0.000001 -0.000001 -8.207786 -6.751667 -1.599560 -0.077001 -0.000003 0.000080 -0.000002 -44.370110 0.345938 0.153719 -0.000000 -0.000000 0.000000 -44.423679 -3.043532 -0.076700 0.000000 -0.000002 -0.000006 -8.728667 10.710559 -0.000009 -0.000000 -0.000000 -0.000001 -0.000679 9.278123 0.000000 -0.000000 -0.000000 8.207792 -6.751710 -1.599556 -0.074518 -0.000003 0.000081 -0.000002 -44.370014 0.346960 0.148822 0.000002 0.000000 -0.000001 -44.423664 -3.044403 -0.074314 0.000000 -0.000002 -0.000004 -8.728671 10.710558 0.000007 -0.000000 -0.000000 0.000000 -0.000680 9.278137 -0.000000 0.000000 -0.000001 
0.000006 104.270477 1.554256 0.000010 0.000003 -0.000113 -0.000005 10.181587 0.131522 0.000001 -0.000003 0.000084 -0.000000 9.893967 -1.470711 0.000001 0.000000 -0.000000 -0.000000 9.220802 -1.370642 0.000000 -0.000000 -0.000000 0.000001 16.740433 -2.049030 0.000000 -0.000000 -0.000000 0.000000 9.617859 1.685014 0.000000 0.000000 0.000000 0.000002 22.037384 7.501101 0.000000 -0.000000 0.000000 -4.569968 11.014880 -2.160881 0.000008 0.000001 -0.000038 -10.592785 -0.524843 -2.231751 84.574756 62.089070 -57.398075 -27.841478 0.000001 0.000587 40.615173 105.338039 -51.768189 -28.328840 0.000035 0.000028 -0.000325 -0.000044 0.000008 -2.464890 -1.574068 2.682007 138.636297 -198.972481 167.416652 -3.215275 -1.872870 1.924430 313.090435 21.088501 347.302306 -2.654932 -1.528136 1.512816 -59.754859 18.069938 -13.824688 -2.018838 -1.152018 1.108053 -0.000004 -0.000008 0.000001 -9.108366 -0.517939 2.260291 -93.274600 43.432565 45.733389 -3.700048 -0.000027 0.001715 -106.219687 39.483001 51.107498 -2.850074 -0.000049 -0.000054 -102.809442 26.595365 32.989479 -2.772163 -0.000015 -0.000018 -0.000000 0.000001 -0.000000 -9.532515 -0.000037 0.000532 -128.128830 33.001043 62.717331 -3.700027 -0.000013 0.004265 -125.954439 17.686799 33.843987 -2.950022 -0.000062 -0.001519 -118.966965 12.885742 21.683902 -2.946633 0.000012 -0.000160 0.000003 -0.000000 0.000000 -9.103582 -0.043027 -1.864560 -131.572543 32.310524 65.567678 -3.379275 -0.000131 -0.000553 -118.535269 4.763661 8.026919 -2.889716 -0.000124 0.000854 -116.582682 -3.160377 -5.043243 -2.638806 -0.000018 0.000944 -0.000003 0.000000 -0.000001 -8.076693 -0.486673 -3.805725 -133.391682 25.976724 56.264827 -3.600013 -0.000196 -0.003288 -113.219067 0.593823 0.429153 -2.099963 -0.000214 -0.005312 -109.463255 -6.619207 -9.665728 -2.115777 -0.000056 -0.003680 0.000002 0.000004 -0.000003 4.570446 11.014691 -2.160851 -0.000018 0.000010 -0.000021 10.592529 -0.524520 -2.232405 74.450182 -60.930663 48.159602 27.841763 -0.000084 -0.000110 222.102602 -74.046286 234.074080 28.328831 -0.000029 0.000015 0.000018 -0.000090 0.000000 2.466195 -1.576137 2.681892 54.428610 137.957281 -117.332227 3.217846 -1.871984 1.916539 266.427047 34.287775 38.338272 2.656065 -1.528733 1.514629 274.321844 20.760348 30.116538 2.020890 -1.154072 1.115150 0.000001 0.000005 0.000006 9.109276 -0.517915 2.260099 -75.761244 -22.141185 -17.304926 3.699826 0.000154 -0.000101 60.523085 -137.293974 112.351694 2.850021 0.000008 0.000411 -13.188405 -149.859268 313.525436 2.774878 -0.000036 -0.000028 0.000003 0.000002 0.000001 9.533367 0.000155 0.000275 -74.218441 -16.438988 -12.469766 3.699823 0.000223 -0.000014 231.902134 -31.015496 300.622826 2.950150 0.000211 -0.000053 -203.239273 -13.700326 60.602472 2.952852 -0.000017 0.000049 -0.000002 -0.000003 -0.000004 9.104518 -0.042942 -1.864845 -70.979285 -13.355494 -9.544805 3.149889 0.000360 0.000287 229.523043 -14.715603 -31.281495 2.950052 0.000311 0.000055 167.421802 -2.473177 22.179335 2.644326 0.000012 0.000058 -0.000001 0.000003 0.000003 8.077772 -0.486823 -3.806053 -58.107104 -13.423423 -7.665033 3.599908 0.000287 0.015003 -114.026013 -7.970612 -12.791438 2.100094 0.000324 0.007793 189.054254 2.939595 29.942043 2.125497 -0.000032 0.007516 -0.000002 0.000001 -0.000000 -8.207786 -6.751667 -1.599560 -0.077001 -0.000003 0.000080 -0.000002 -44.370110 0.345938 0.153719 -0.000000 -0.000000 0.000000 -44.423679 -3.043532 -0.076700 0.000000 -0.000002 -0.000006 -8.728667 10.710559 -0.000009 -0.000000 -0.000000 -0.000001 -0.000679 9.278123 0.000000 -0.000000 -0.000000 8.207792 -6.751710 -1.599556 -0.074518 -0.000003 0.000081 -0.000002 -44.370014 0.346960 0.148822 0.000002 0.000000 -0.000001 -44.423664 -3.044403 -0.074314 0.000000 -0.000002 -0.000004 -8.728671 10.710558 0.000007 -0.000000 -0.000000 0.000000 -0.000680 9.278137 -0.000000 0.000000 -0.000001 
